<svg xmlns="http://www.w3.org/2000/svg" width="248" height="72" viewBox="0 0 248 72" fill="none">
  <path fill-rule="evenodd" clip-rule="evenodd" d="M232.046 0.90521C232.337 0.404743 233.031 0.425949 233.274 0.956105C234.099 2.75439 234.568 4.95984 234.568 7.08895C234.568 14.4009 229.772 20.3725 222.957 20.856C219.722 21.1921 217.198 19.7096 215.721 18.0179L206.919 32.92C206.252 34.1031 205.452 35.0963 204.52 35.8998C205.352 36.0498 206.082 36.2765 206.709 36.58C207.949 37.16 208.959 38.02 209.739 39.16C210.519 40.28 211.209 41.66 211.809 43.3L215.079 51.97C215.399 52.81 215.689 53.5 215.949 54.04C216.229 54.58 216.509 55.03 216.789 55.39C217.089 55.73 217.409 56.05 217.749 56.35C217.309 56.99 216.679 57.49 215.859 57.85C215.039 58.19 214.229 58.36 213.429 58.36C212.169 58.36 211.259 58.04 210.699 57.4C210.159 56.76 209.659 55.79 209.199 54.49L205.959 45.73C205.119 43.43 204.169 41.83 203.109 40.93C202.049 40.03 200.629 39.58 198.849 39.58C198.209 39.58 197.279 39.6 196.059 39.64C195.662 39.6531 195.232 39.6703 194.769 39.6918V58C194.289 58.08 193.759 58.14 193.179 58.18C192.599 58.22 192.049 58.24 191.529 58.24C191.089 58.24 190.569 58.22 189.969 58.18C189.369 58.14 188.839 58.08 188.379 58V17.02C188.839 16.92 189.369 16.86 189.969 16.84C190.569 16.8 191.089 16.78 191.529 16.78C192.049 16.78 192.599 16.8 193.179 16.84C193.759 16.86 194.289 16.92 194.769 17.02V34.181L194.829 34.18C196.049 34.14 197.149 34.12 198.129 34.12C198.729 34.12 199.169 33.99 199.449 33.73C199.749 33.47 200.069 33.04 200.409 32.44L208.119 19.42C208.599 18.56 209.089 17.92 209.589 17.5C210.089 17.06 210.879 16.84 211.959 16.84C212.012 16.84 212.066 16.8401 212.12 16.8403C214.626 14.2129 219.079 11.4023 226.234 11.4023C226.616 11.4023 226.929 11.0969 226.929 10.7237C226.929 10.3505 226.616 10.0451 226.234 10.0451C220.566 10.0451 216.568 11.6907 213.799 13.6289C213.796 13.5951 213.792 13.5613 213.789 13.5275C213.761 13.2736 213.734 13.0215 213.734 12.7595C213.734 8.26377 217.467 4.6163 222.068 4.6163H225.54C228.292 4.6163 230.7 3.19124 232.046 0.90521ZM43.2742 2.91047C43.0312 2.38032 42.3367 2.35911 42.0459 2.85958C40.7004 5.14561 38.2916 6.57067 35.5398 6.57067H32.0676C27.4669 6.57067 23.7343 10.2181 23.7343 14.7139C23.7343 14.9759 23.7613 15.2281 23.7886 15.482L23.7994 15.5833C26.5685 13.6451 30.5659 11.9995 36.2343 11.9995C36.6162 11.9995 36.9287 12.3048 36.9287 12.6781C36.9287 13.0513 36.6162 13.3567 36.2343 13.3567C28.8586 13.3567 24.3545 16.343 21.8936 19.0368C21.3754 18.686 20.8075 18.3738 20.19 18.1C18.25 17.22 15.81 16.78 12.87 16.78C10.89 16.78 8.86 16.8 6.78 16.84C4.72 16.88 2.59 16.93 0.39 16.99L0 17.35V57.67L0.39 58.03C2.65 58.07 4.81 58.11 6.87 58.15C8.95 58.21 11.2 58.24 13.62 58.24C16.96 58.24 19.68 57.73 21.78 56.71C23.88 55.67 25.43 54.27 26.43 52.51C27.43 50.73 27.93 48.73 27.93 46.51C27.93 44.49 27.46 42.67 26.52 41.05C25.58 39.43 24.36 38.14 22.86 37.18C22.0587 36.6565 21.2345 36.27 20.3875 36.0204C21.0327 35.7744 21.6368 35.4509 22.2 35.05C23.38 34.21 24.3 33.14 24.96 31.84C25.64 30.54 25.98 29.13 25.98 27.61C25.98 25.35 25.5 23.42 24.54 21.82C24.3526 21.5038 24.1466 21.2021 23.9218 20.9148C24.3195 20.4711 24.7976 20.0014 25.3662 19.5362C26.7725 21.3981 29.4461 23.1751 32.9574 22.8104C39.7716 22.3269 44.5676 16.3552 44.5676 9.04331C44.5676 6.91421 44.0989 4.70876 43.2742 2.91047ZM6.33 53.44C7.59 53.44 8.83 53.43 10.05 53.41C11.29 53.39 12.48 53.38 13.62 53.38C15.78 53.38 17.42 52.99 18.54 52.21C19.66 51.43 20.41 50.49 20.79 49.39C21.19 48.27 21.39 47.2 21.39 46.18C21.39 45.18 21.15 44.12 20.67 43C20.21 41.88 19.39 40.93 18.21 40.15C17.03 39.35 15.37 38.95 13.23 38.95H6.33V53.44ZM6.33 21.58V34H12.63C14.51 34 15.94 33.68 16.92 33.04C17.92 32.4 18.61 31.61 18.99 30.67C19.37 29.71 19.56 28.75 19.56 27.79C19.56 26.81 19.38 25.85 19.02 24.91C18.68 23.97 18.02 23.19 17.04 22.57C16.08 21.95 14.65 21.64 12.75 21.64H9.63C8.41 21.62 7.31 21.6 6.33 21.58ZM58.9481 49.6C58.9481 50.76 59.0681 51.85 59.3081 52.87C59.5481 53.89 59.9881 54.69 60.6281 55.27C60.4681 55.85 60.1681 56.45 59.7281 57.07C59.2881 57.67 58.8181 58.13 58.3181 58.45C56.3581 58.05 54.9381 57.11 54.0581 55.63C53.7708 55.1288 53.5314 54.6042 53.3401 54.0561C52.2202 55.1607 50.9195 56.1253 49.4381 56.95C47.4981 58.01 45.4381 58.54 43.2581 58.54C41.3981 58.54 39.8781 58.11 38.6981 57.25C37.5381 56.37 36.6781 55.18 36.1181 53.68C35.5781 52.18 35.3081 50.52 35.3081 48.7V34.72C35.3081 33.68 35.2381 32.7 35.0981 31.78C34.9581 30.84 34.7081 30.02 34.3481 29.32C34.7881 28.94 35.3581 28.63 36.0581 28.39C36.7581 28.13 37.4781 28 38.2181 28C39.4181 28 40.2681 28.33 40.7681 28.99C41.2681 29.65 41.5181 30.63 41.5181 31.93V47.2C41.5181 49.2 41.7681 50.66 42.2681 51.58C42.7881 52.5 43.7781 52.96 45.2381 52.96C46.2581 52.96 47.3481 52.72 48.5081 52.24C49.6681 51.74 50.7681 51.05 51.8081 50.17C52.1497 49.881 52.4697 49.5758 52.7681 49.2544V28.39C53.1681 28.31 53.6381 28.25 54.1781 28.21C54.7381 28.17 55.2981 28.15 55.8581 28.15C56.4181 28.15 56.9681 28.17 57.5081 28.21C58.0481 28.25 58.5281 28.31 58.9481 28.39V49.6ZM90.7406 49.57C90.7406 50.73 90.8506 51.82 91.0706 52.84C91.3106 53.86 91.7606 54.66 92.4206 55.24C92.2606 55.8 91.9506 56.4 91.4906 57.04C91.0506 57.66 90.5806 58.13 90.0806 58.45C88.1206 58.05 86.7306 57.11 85.9106 55.63C85.734 55.3113 85.5764 54.9823 85.4379 54.6431C84.4357 55.8136 83.2233 56.7826 81.8006 57.55C80.2806 58.37 78.5706 58.78 76.6706 58.78C74.4106 58.78 72.5106 58.14 70.9706 56.86C69.4306 55.56 68.2706 53.77 67.4906 51.49C66.7306 49.19 66.3506 46.54 66.3506 43.54C66.3506 39.98 66.9106 37.04 68.0306 34.72C69.1706 32.4 70.6106 30.68 72.3506 29.56C74.1106 28.44 75.9406 27.88 77.8406 27.88C79.7606 27.88 81.5206 28.27 83.1206 29.05C83.6516 29.3089 84.1716 29.581 84.6806 29.8663V14.26L85.0406 13.87H87.4106C88.6906 13.87 89.5606 14.19 90.0206 14.83C90.5006 15.45 90.7406 16.45 90.7406 17.83V49.57ZM83.0606 34.09C83.6209 34.4136 84.1609 34.7433 84.6806 35.0793V49.7936C84.5643 49.9546 84.4443 50.1101 84.3206 50.26C83.3806 51.4 82.3606 52.25 81.2606 52.81C80.1606 53.35 79.1106 53.62 78.1106 53.62C77.1506 53.62 76.2506 53.28 75.4106 52.6C74.5906 51.92 73.9306 50.84 73.4306 49.36C72.9306 47.88 72.6806 45.96 72.6806 43.6C72.6806 41.14 72.9506 39.12 73.4906 37.54C74.0306 35.94 74.7606 34.76 75.6806 34C76.6006 33.22 77.6106 32.83 78.7106 32.83C80.2106 32.83 81.6606 33.25 83.0606 34.09ZM98.137 49.96C98.137 47.66 98.637 45.78 99.637 44.32C100.657 42.84 102.027 41.75 103.747 41.05C105.487 40.35 107.447 40 109.627 40C110.727 40 111.987 40.05 113.407 40.15C114.079 40.1974 114.729 40.2649 115.357 40.3526V38.05C115.357 36.17 114.927 34.82 114.067 34C113.227 33.16 112.027 32.74 110.467 32.74C108.967 32.74 107.417 32.97 105.817 33.43C104.217 33.89 102.617 34.43 101.017 35.05C100.537 34.55 100.127 33.87 99.787 33.01C99.467 32.13 99.287 31.29 99.247 30.49C100.367 30.01 101.627 29.56 103.027 29.14C104.447 28.72 105.907 28.39 107.407 28.15C108.907 27.89 110.337 27.76 111.697 27.76C113.677 27.76 115.397 28.12 116.857 28.84C118.317 29.56 119.447 30.66 120.247 32.14C121.067 33.62 121.477 35.51 121.477 37.81V50.11C121.477 51.23 121.587 52.22 121.807 53.08C122.027 53.92 122.477 54.64 123.157 55.24C123.017 55.8 122.717 56.4 122.257 57.04C121.817 57.66 121.347 58.13 120.847 58.45C119.587 58.19 118.567 57.72 117.787 57.04C117.017 56.3689 116.442 55.5711 116.062 54.6467C115.836 54.8613 115.601 55.0791 115.357 55.3C114.297 56.26 113.067 57.08 111.667 57.76C110.287 58.44 108.717 58.78 106.957 58.78C104.977 58.78 103.327 58.34 102.007 57.46C100.707 56.58 99.737 55.47 99.097 54.13C98.457 52.77 98.137 51.38 98.137 49.96ZM113.737 44.41C114.3 44.4352 114.84 44.4781 115.357 44.5386V50.2942C114.63 51.1221 113.83 51.8107 112.957 52.36C111.337 53.38 109.797 53.89 108.337 53.89C107.037 53.89 106.037 53.47 105.337 52.63C104.637 51.77 104.287 50.73 104.287 49.51C104.287 47.89 104.787 46.62 105.787 45.7C106.787 44.76 108.197 44.29 110.017 44.29C111.177 44.29 112.417 44.33 113.737 44.41ZM144.615 57.04C143.735 60.1 142.765 62.67 141.705 64.75C140.665 66.83 139.325 68.41 137.685 69.49C136.045 70.57 133.895 71.11 131.235 71.11C130.295 71.11 129.255 71 128.115 70.78C126.995 70.58 126.125 70.37 125.505 70.15C125.445 69.41 125.545 68.6 125.805 67.72C126.085 66.86 126.425 66.19 126.825 65.71C127.305 65.87 127.965 66.03 128.805 66.19C129.665 66.35 130.495 66.43 131.295 66.43C132.635 66.43 133.745 66.13 134.625 65.53C135.525 64.93 136.275 64.07 136.875 62.95C137.495 61.83 138.025 60.52 138.465 59.02L138.675 58.3C137.435 58.26 136.445 58.02 135.705 57.58C134.965 57.12 134.405 56.29 134.025 55.09L126.165 28.87C126.865 28.53 127.535 28.29 128.175 28.15C128.835 28.01 129.415 27.94 129.915 27.94C130.655 27.94 131.285 28.13 131.805 28.51C132.345 28.87 132.755 29.6 133.035 30.7L137.085 44.5C137.385 45.42 137.665 46.42 137.925 47.5C138.205 48.58 138.465 49.63 138.705 50.65C138.965 51.65 139.175 52.54 139.335 53.32C139.415 53.6 139.605 53.74 139.905 53.74L146.475 28.36C146.855 28.28 147.285 28.22 147.765 28.18C148.245 28.14 148.705 28.12 149.145 28.12C149.685 28.12 150.225 28.15 150.765 28.21C151.305 28.27 151.825 28.38 152.325 28.54L152.535 28.9L144.615 57.04ZM155.149 49.96C155.149 47.66 155.649 45.78 156.649 44.32C157.669 42.84 159.039 41.75 160.759 41.05C162.499 40.35 164.459 40 166.639 40C167.739 40 168.999 40.05 170.419 40.15C171.091 40.1974 171.741 40.2649 172.369 40.3526V38.05C172.369 36.17 171.939 34.82 171.079 34C170.239 33.16 169.039 32.74 167.479 32.74C165.979 32.74 164.429 32.97 162.829 33.43C161.229 33.89 159.629 34.43 158.029 35.05C157.549 34.55 157.139 33.87 156.799 33.01C156.479 32.13 156.299 31.29 156.259 30.49C157.379 30.01 158.639 29.56 160.039 29.14C161.459 28.72 162.919 28.39 164.419 28.15C165.919 27.89 167.349 27.76 168.709 27.76C170.689 27.76 172.409 28.12 173.869 28.84C175.329 29.56 176.459 30.66 177.259 32.14C178.079 33.62 178.489 35.51 178.489 37.81V50.11C178.489 51.23 178.599 52.22 178.819 53.08C179.039 53.92 179.489 54.64 180.169 55.24C180.029 55.8 179.729 56.4 179.269 57.04C178.829 57.66 178.359 58.13 177.859 58.45C176.599 58.19 175.579 57.72 174.799 57.04C174.029 56.3689 173.454 55.5711 173.074 54.6467C172.848 54.8613 172.613 55.0791 172.369 55.3C171.309 56.26 170.079 57.08 168.679 57.76C167.299 58.44 165.729 58.78 163.969 58.78C161.989 58.78 160.339 58.34 159.019 57.46C157.719 56.58 156.749 55.47 156.109 54.13C155.469 52.77 155.149 51.38 155.149 49.96ZM170.749 44.41C171.312 44.4352 171.852 44.4781 172.369 44.5386V50.2942C171.641 51.1221 170.841 51.8107 169.969 52.36C168.349 53.38 166.809 53.89 165.349 53.89C164.049 53.89 163.049 53.47 162.349 52.63C161.649 51.77 161.299 50.73 161.299 49.51C161.299 47.89 161.799 46.62 162.799 45.7C163.799 44.76 165.209 44.29 167.029 44.29C168.189 44.29 169.429 44.33 170.749 44.41ZM245.745 49.6C245.745 50.76 245.865 51.85 246.105 52.87C246.345 53.89 246.785 54.69 247.425 55.27C247.265 55.85 246.965 56.45 246.525 57.07C246.085 57.67 245.615 58.13 245.115 58.45C243.155 58.05 241.735 57.11 240.855 55.63C240.568 55.1288 240.328 54.6042 240.137 54.0561C239.017 55.1607 237.716 56.1253 236.235 56.95C234.295 58.01 232.235 58.54 230.055 58.54C228.195 58.54 226.675 58.11 225.495 57.25C224.335 56.37 223.475 55.18 222.915 53.68C222.375 52.18 222.105 50.52 222.105 48.7V34.72C222.105 33.68 222.035 32.7 221.895 31.78C221.755 30.84 221.505 30.02 221.145 29.32C221.585 28.94 222.155 28.63 222.855 28.39C223.555 28.13 224.275 28 225.015 28C226.215 28 227.065 28.33 227.565 28.99C228.065 29.65 228.315 30.63 228.315 31.93V47.2C228.315 49.2 228.565 50.66 229.065 51.58C229.585 52.5 230.575 52.96 232.035 52.96C233.055 52.96 234.145 52.72 235.305 52.24C236.465 51.74 237.565 51.05 238.605 50.17C238.947 49.881 239.267 49.5758 239.565 49.2544V28.39C239.965 28.31 240.435 28.25 240.975 28.21C241.535 28.17 242.095 28.15 242.655 28.15C243.215 28.15 243.765 28.17 244.305 28.21C244.845 28.25 245.325 28.31 245.745 28.39V49.6Z" fill="#0D3B66"/>
</svg>